# xmcd
#
# Track frame offsets:
#	150
#	10665
#	22125
#	32530
#	44682
#	56442
#	67012
#	78967
#	91860
#	103552
#	114982
#	126657
#	138950
#	151155
#	162085
#	176860
#
# Disc length: 2509 seconds
#
# Revision: 1
# Processed by: cddbd v1.5.2PL0 Copyright (c) Steve Scherf et al.
# Submitted via: EasyCDDAExtractor 11.0.3.2
#
DISCID=cc09cb10
DTITLE=Mac Wiseman - Early Dot Recordings-Volume 3
DYEAR=1900
DGENRE=country
TTITLE0=Don't Let Your Sweet Love Die
TTITLE1=Don't Blame It All On Me
TTITLE2=I Saw Your Face in the Moon
TTITLE3=I'll Still Write Your Name in the Sand
TTITLE4=Four Walls Around Me
TTITLE5=It's Goodbye and So Long to You
TTITLE6=Six More Miles
TTITLE7=Waiting for the Boys
TTITLE8=When I Get the Money Made
TTITLE9=You'd Better Wake Up
TTITLE10=The Waltz You Saved for Me
TTITLE11=Reveille in Heaven
TTITLE12=You're Sweeter Than Honey
TTITLE13=I'd Rather Die Young (Than Grow Old Without You)
TTITLE14=A Fire in My Heart
TTITLE15=Goin' Like Wildfire
EXTD=ID3G: 2
EXTT0=
EXTT1=
EXTT2=
EXTT3=
EXTT4=
EXTT5=
EXTT6=
EXTT7=
EXTT8=
EXTT9=
EXTT10=
EXTT11=
EXTT12=
EXTT13=
EXTT14=
EXTT15=
PLAYORDER=
